%TF.GenerationSoftware,KiCad,Pcbnew,(6.0.11)*%
%TF.CreationDate,2024-04-25T23:10:29+03:00*%
%TF.ProjectId,avr-co2-detector,6176722d-636f-4322-9d64-65746563746f,rev.2*%
%TF.SameCoordinates,Original*%
%TF.FileFunction,Soldermask,Bot*%
%TF.FilePolarity,Negative*%
%FSLAX46Y46*%
G04 Gerber Fmt 4.6, Leading zero omitted, Abs format (unit mm)*
G04 Created by KiCad (PCBNEW (6.0.11)) date 2024-04-25 23:10:29*
%MOMM*%
%LPD*%
G01*
G04 APERTURE LIST*
G04 Aperture macros list*
%AMRoundRect*
0 Rectangle with rounded corners*
0 $1 Rounding radius*
0 $2 $3 $4 $5 $6 $7 $8 $9 X,Y pos of 4 corners*
0 Add a 4 corners polygon primitive as box body*
4,1,4,$2,$3,$4,$5,$6,$7,$8,$9,$2,$3,0*
0 Add four circle primitives for the rounded corners*
1,1,$1+$1,$2,$3*
1,1,$1+$1,$4,$5*
1,1,$1+$1,$6,$7*
1,1,$1+$1,$8,$9*
0 Add four rect primitives between the rounded corners*
20,1,$1+$1,$2,$3,$4,$5,0*
20,1,$1+$1,$4,$5,$6,$7,0*
20,1,$1+$1,$6,$7,$8,$9,0*
20,1,$1+$1,$8,$9,$2,$3,0*%
G04 Aperture macros list end*
%ADD10C,3.200000*%
%ADD11C,3.000000*%
%ADD12C,0.650000*%
%ADD13O,2.100000X1.000000*%
%ADD14O,1.600000X1.000000*%
%ADD15R,1.700000X1.700000*%
%ADD16C,1.700000*%
%ADD17RoundRect,0.250000X0.600000X0.600000X-0.600000X0.600000X-0.600000X-0.600000X0.600000X-0.600000X0*%
%ADD18C,2.000000*%
%ADD19R,1.800000X1.800000*%
%ADD20C,1.800000*%
%ADD21RoundRect,0.250000X0.475000X-0.337500X0.475000X0.337500X-0.475000X0.337500X-0.475000X-0.337500X0*%
%ADD22RoundRect,0.250000X-0.475000X0.337500X-0.475000X-0.337500X0.475000X-0.337500X0.475000X0.337500X0*%
%ADD23RoundRect,0.150000X0.512500X0.150000X-0.512500X0.150000X-0.512500X-0.150000X0.512500X-0.150000X0*%
%ADD24RoundRect,0.250000X-0.337500X-0.475000X0.337500X-0.475000X0.337500X0.475000X-0.337500X0.475000X0*%
%ADD25R,1.550000X1.300000*%
%ADD26O,1.700000X1.700000*%
%ADD27R,1.000000X1.000000*%
%ADD28O,1.000000X1.000000*%
%ADD29RoundRect,0.250000X0.450000X-0.350000X0.450000X0.350000X-0.450000X0.350000X-0.450000X-0.350000X0*%
%ADD30RoundRect,0.250000X-0.600000X0.600000X-0.600000X-0.600000X0.600000X-0.600000X0.600000X0.600000X0*%
G04 APERTURE END LIST*
D10*
%TO.C,REF\u002A\u002A*%
X179000000Y-130000000D03*
%TD*%
D11*
%TO.C,REF\u002A\u002A*%
X106500000Y-98500000D03*
%TD*%
D10*
%TO.C,REF\u002A\u002A*%
X179000000Y-68000000D03*
%TD*%
D12*
%TO.C,J1*%
X88600000Y-75110000D03*
X88600000Y-80890000D03*
D13*
X89130000Y-73680000D03*
D14*
X84950000Y-73680000D03*
D13*
X89130000Y-82320000D03*
D14*
X84950000Y-82320000D03*
%TD*%
D15*
%TO.C,U3*%
X90697500Y-114920000D03*
D16*
X90697500Y-117460000D03*
X90697500Y-120000000D03*
X90697500Y-122540000D03*
X120397500Y-125080000D03*
X120397500Y-122540000D03*
X120397500Y-120000000D03*
X120397500Y-117460000D03*
X120397500Y-114920000D03*
%TD*%
D11*
%TO.C,REF\u002A\u002A*%
X159500000Y-98500000D03*
%TD*%
D10*
%TO.C,REF\u002A\u002A*%
X87000000Y-68000000D03*
%TD*%
%TO.C,REF\u002A\u002A*%
X87000000Y-130000000D03*
%TD*%
D17*
%TO.C,J4*%
X108240000Y-92620000D03*
D16*
X105700000Y-92620000D03*
X108240000Y-90080000D03*
X105700000Y-90080000D03*
X108240000Y-87540000D03*
X105700000Y-87540000D03*
X108240000Y-85000000D03*
X105700000Y-85000000D03*
X108240000Y-82460000D03*
X105700000Y-82460000D03*
X108240000Y-79920000D03*
X105700000Y-79920000D03*
X108240000Y-77380000D03*
X105700000Y-77380000D03*
X108240000Y-74840000D03*
X105700000Y-74840000D03*
%TD*%
D18*
%TO.C,TP1*%
X174800000Y-77300000D03*
X177340000Y-77300000D03*
%TD*%
D11*
%TO.C,REF\u002A\u002A*%
X159500000Y-71500000D03*
%TD*%
D19*
%TO.C,D1*%
X166225000Y-111500000D03*
D20*
X168765000Y-111500000D03*
%TD*%
D11*
%TO.C,REF\u002A\u002A*%
X106500000Y-71500000D03*
%TD*%
D15*
%TO.C,J3*%
X160700000Y-93500000D03*
%TD*%
%TO.C,J2*%
X160700000Y-76500000D03*
%TD*%
D21*
%TO.C,C18*%
X156685714Y-81037500D03*
X156685714Y-78962500D03*
%TD*%
D22*
%TO.C,C10*%
X96200000Y-115262500D03*
X96200000Y-117337500D03*
%TD*%
D23*
%TO.C,U7*%
X110500000Y-118250000D03*
X110500000Y-119200000D03*
X110500000Y-120150000D03*
X108225000Y-120150000D03*
X108225000Y-119200000D03*
X108225000Y-118250000D03*
%TD*%
%TO.C,U9*%
X170637500Y-94950000D03*
X170637500Y-95900000D03*
X170637500Y-96850000D03*
X168362500Y-96850000D03*
X168362500Y-95900000D03*
X168362500Y-94950000D03*
%TD*%
D24*
%TO.C,C25*%
X168362500Y-92200000D03*
X170437500Y-92200000D03*
%TD*%
D25*
%TO.C,SW1*%
X115425000Y-99750000D03*
X123375000Y-99750000D03*
X123375000Y-95250000D03*
X115425000Y-95250000D03*
%TD*%
D24*
%TO.C,C23*%
X108425000Y-115600000D03*
X110500000Y-115600000D03*
%TD*%
D15*
%TO.C,J6*%
X114060000Y-68400000D03*
D26*
X116600000Y-68400000D03*
X119140000Y-68400000D03*
%TD*%
D21*
%TO.C,C22*%
X173700000Y-96937500D03*
X173700000Y-94862500D03*
%TD*%
D15*
%TO.C,JP1*%
X115600000Y-84400000D03*
D26*
X118140000Y-84400000D03*
X120680000Y-84400000D03*
%TD*%
D27*
%TO.C,J7*%
X126000002Y-107399998D03*
D28*
X124730002Y-107399998D03*
X126000002Y-108669998D03*
X124730002Y-108669998D03*
X126000002Y-109939998D03*
X124730002Y-109939998D03*
%TD*%
D23*
%TO.C,U6*%
X153137500Y-79850000D03*
X153137500Y-80800000D03*
X153137500Y-81750000D03*
X150862500Y-81750000D03*
X150862500Y-80800000D03*
X150862500Y-79850000D03*
%TD*%
D22*
%TO.C,C7*%
X110700000Y-92562500D03*
X110700000Y-94637500D03*
%TD*%
%TO.C,C24*%
X164985714Y-84862500D03*
X164985714Y-86937500D03*
%TD*%
D29*
%TO.C,R6*%
X110700000Y-90700000D03*
X110700000Y-88700000D03*
%TD*%
D21*
%TO.C,C21*%
X173785714Y-87037500D03*
X173785714Y-84962500D03*
%TD*%
D25*
%TO.C,SW2*%
X155325000Y-103650000D03*
X163275000Y-103650000D03*
X163275000Y-108150000D03*
X155325000Y-108150000D03*
%TD*%
D23*
%TO.C,U8*%
X170637500Y-85150000D03*
X170637500Y-86100000D03*
X170637500Y-87050000D03*
X168362500Y-87050000D03*
X168362500Y-86100000D03*
X168362500Y-85150000D03*
%TD*%
D22*
%TO.C,C11*%
X93800000Y-115262500D03*
X93800000Y-117337500D03*
%TD*%
D29*
%TO.C,R5*%
X110700000Y-86700000D03*
X110700000Y-84700000D03*
%TD*%
D21*
%TO.C,C20*%
X113562500Y-120237500D03*
X113562500Y-118162500D03*
%TD*%
D22*
%TO.C,C19*%
X146985714Y-79062500D03*
X146985714Y-81137500D03*
%TD*%
D30*
%TO.C,J5*%
X130500000Y-96600000D03*
D16*
X130500000Y-99140000D03*
X133040000Y-96600000D03*
X133040000Y-99140000D03*
X135580000Y-96600000D03*
X135580000Y-99140000D03*
X138120000Y-96600000D03*
X138120000Y-99140000D03*
X140660000Y-96600000D03*
X140660000Y-99140000D03*
%TD*%
M02*
