%TF.GenerationSoftware,KiCad,Pcbnew,(6.0.11)*%
%TF.CreationDate,2024-04-14T23:22:21+03:00*%
%TF.ProjectId,avr-co2-detector,6176722d-636f-4322-9d64-65746563746f,rev. 1*%
%TF.SameCoordinates,Original*%
%TF.FileFunction,Legend,Top*%
%TF.FilePolarity,Positive*%
%FSLAX46Y46*%
G04 Gerber Fmt 4.6, Leading zero omitted, Abs format (unit mm)*
G04 Created by KiCad (PCBNEW (6.0.11)) date 2024-04-14 23:22:21*
%MOMM*%
%LPD*%
G01*
G04 APERTURE LIST*
%ADD10C,0.150000*%
%ADD11C,0.120000*%
G04 APERTURE END LIST*
D10*
%TO.C,U5*%
X143438095Y-129114880D02*
X143438095Y-129924404D01*
X143485714Y-130019642D01*
X143533333Y-130067261D01*
X143628571Y-130114880D01*
X143819047Y-130114880D01*
X143914285Y-130067261D01*
X143961904Y-130019642D01*
X144009523Y-129924404D01*
X144009523Y-129114880D01*
X144961904Y-129114880D02*
X144485714Y-129114880D01*
X144438095Y-129591071D01*
X144485714Y-129543452D01*
X144580952Y-129495833D01*
X144819047Y-129495833D01*
X144914285Y-129543452D01*
X144961904Y-129591071D01*
X145009523Y-129686309D01*
X145009523Y-129924404D01*
X144961904Y-130019642D01*
X144914285Y-130067261D01*
X144819047Y-130114880D01*
X144580952Y-130114880D01*
X144485714Y-130067261D01*
X144438095Y-130019642D01*
%TO.C,R16*%
X130657142Y-124102380D02*
X130323809Y-123626190D01*
X130085714Y-124102380D02*
X130085714Y-123102380D01*
X130466666Y-123102380D01*
X130561904Y-123150000D01*
X130609523Y-123197619D01*
X130657142Y-123292857D01*
X130657142Y-123435714D01*
X130609523Y-123530952D01*
X130561904Y-123578571D01*
X130466666Y-123626190D01*
X130085714Y-123626190D01*
X131609523Y-124102380D02*
X131038095Y-124102380D01*
X131323809Y-124102380D02*
X131323809Y-123102380D01*
X131228571Y-123245238D01*
X131133333Y-123340476D01*
X131038095Y-123388095D01*
X132466666Y-123102380D02*
X132276190Y-123102380D01*
X132180952Y-123150000D01*
X132133333Y-123197619D01*
X132038095Y-123340476D01*
X131990476Y-123530952D01*
X131990476Y-123911904D01*
X132038095Y-124007142D01*
X132085714Y-124054761D01*
X132180952Y-124102380D01*
X132371428Y-124102380D01*
X132466666Y-124054761D01*
X132514285Y-124007142D01*
X132561904Y-123911904D01*
X132561904Y-123673809D01*
X132514285Y-123578571D01*
X132466666Y-123530952D01*
X132371428Y-123483333D01*
X132180952Y-123483333D01*
X132085714Y-123530952D01*
X132038095Y-123578571D01*
X131990476Y-123673809D01*
%TO.C,SW3*%
X166166666Y-125454761D02*
X166309523Y-125502380D01*
X166547619Y-125502380D01*
X166642857Y-125454761D01*
X166690476Y-125407142D01*
X166738095Y-125311904D01*
X166738095Y-125216666D01*
X166690476Y-125121428D01*
X166642857Y-125073809D01*
X166547619Y-125026190D01*
X166357142Y-124978571D01*
X166261904Y-124930952D01*
X166214285Y-124883333D01*
X166166666Y-124788095D01*
X166166666Y-124692857D01*
X166214285Y-124597619D01*
X166261904Y-124550000D01*
X166357142Y-124502380D01*
X166595238Y-124502380D01*
X166738095Y-124550000D01*
X167071428Y-124502380D02*
X167309523Y-125502380D01*
X167500000Y-124788095D01*
X167690476Y-125502380D01*
X167928571Y-124502380D01*
X168214285Y-124502380D02*
X168833333Y-124502380D01*
X168500000Y-124883333D01*
X168642857Y-124883333D01*
X168738095Y-124930952D01*
X168785714Y-124978571D01*
X168833333Y-125073809D01*
X168833333Y-125311904D01*
X168785714Y-125407142D01*
X168738095Y-125454761D01*
X168642857Y-125502380D01*
X168357142Y-125502380D01*
X168261904Y-125454761D01*
X168214285Y-125407142D01*
%TO.C,C3*%
X144333333Y-87037142D02*
X144285714Y-87084761D01*
X144142857Y-87132380D01*
X144047619Y-87132380D01*
X143904761Y-87084761D01*
X143809523Y-86989523D01*
X143761904Y-86894285D01*
X143714285Y-86703809D01*
X143714285Y-86560952D01*
X143761904Y-86370476D01*
X143809523Y-86275238D01*
X143904761Y-86180000D01*
X144047619Y-86132380D01*
X144142857Y-86132380D01*
X144285714Y-86180000D01*
X144333333Y-86227619D01*
X144666666Y-86132380D02*
X145285714Y-86132380D01*
X144952380Y-86513333D01*
X145095238Y-86513333D01*
X145190476Y-86560952D01*
X145238095Y-86608571D01*
X145285714Y-86703809D01*
X145285714Y-86941904D01*
X145238095Y-87037142D01*
X145190476Y-87084761D01*
X145095238Y-87132380D01*
X144809523Y-87132380D01*
X144714285Y-87084761D01*
X144666666Y-87037142D01*
%TO.C,R14*%
X130252380Y-112842857D02*
X129776190Y-113176190D01*
X130252380Y-113414285D02*
X129252380Y-113414285D01*
X129252380Y-113033333D01*
X129300000Y-112938095D01*
X129347619Y-112890476D01*
X129442857Y-112842857D01*
X129585714Y-112842857D01*
X129680952Y-112890476D01*
X129728571Y-112938095D01*
X129776190Y-113033333D01*
X129776190Y-113414285D01*
X130252380Y-111890476D02*
X130252380Y-112461904D01*
X130252380Y-112176190D02*
X129252380Y-112176190D01*
X129395238Y-112271428D01*
X129490476Y-112366666D01*
X129538095Y-112461904D01*
X129585714Y-111033333D02*
X130252380Y-111033333D01*
X129204761Y-111271428D02*
X129919047Y-111509523D01*
X129919047Y-110890476D01*
%TO.C,C12*%
X140957142Y-104642857D02*
X141004761Y-104690476D01*
X141052380Y-104833333D01*
X141052380Y-104928571D01*
X141004761Y-105071428D01*
X140909523Y-105166666D01*
X140814285Y-105214285D01*
X140623809Y-105261904D01*
X140480952Y-105261904D01*
X140290476Y-105214285D01*
X140195238Y-105166666D01*
X140100000Y-105071428D01*
X140052380Y-104928571D01*
X140052380Y-104833333D01*
X140100000Y-104690476D01*
X140147619Y-104642857D01*
X141052380Y-103690476D02*
X141052380Y-104261904D01*
X141052380Y-103976190D02*
X140052380Y-103976190D01*
X140195238Y-104071428D01*
X140290476Y-104166666D01*
X140338095Y-104261904D01*
X140147619Y-103309523D02*
X140100000Y-103261904D01*
X140052380Y-103166666D01*
X140052380Y-102928571D01*
X140100000Y-102833333D01*
X140147619Y-102785714D01*
X140242857Y-102738095D01*
X140338095Y-102738095D01*
X140480952Y-102785714D01*
X141052380Y-103357142D01*
X141052380Y-102738095D01*
%TO.C,J1*%
X91452380Y-78333333D02*
X92166666Y-78333333D01*
X92309523Y-78380952D01*
X92404761Y-78476190D01*
X92452380Y-78619047D01*
X92452380Y-78714285D01*
X92452380Y-77333333D02*
X92452380Y-77904761D01*
X92452380Y-77619047D02*
X91452380Y-77619047D01*
X91595238Y-77714285D01*
X91690476Y-77809523D01*
X91738095Y-77904761D01*
%TO.C,U3*%
X104835595Y-130412380D02*
X104835595Y-131221904D01*
X104883214Y-131317142D01*
X104930833Y-131364761D01*
X105026071Y-131412380D01*
X105216547Y-131412380D01*
X105311785Y-131364761D01*
X105359404Y-131317142D01*
X105407023Y-131221904D01*
X105407023Y-130412380D01*
X105787976Y-130412380D02*
X106407023Y-130412380D01*
X106073690Y-130793333D01*
X106216547Y-130793333D01*
X106311785Y-130840952D01*
X106359404Y-130888571D01*
X106407023Y-130983809D01*
X106407023Y-131221904D01*
X106359404Y-131317142D01*
X106311785Y-131364761D01*
X106216547Y-131412380D01*
X105930833Y-131412380D01*
X105835595Y-131364761D01*
X105787976Y-131317142D01*
%TO.C,Y1*%
X152576190Y-85376190D02*
X153052380Y-85376190D01*
X152052380Y-85709523D02*
X152576190Y-85376190D01*
X152052380Y-85042857D01*
X153052380Y-84185714D02*
X153052380Y-84757142D01*
X153052380Y-84471428D02*
X152052380Y-84471428D01*
X152195238Y-84566666D01*
X152290476Y-84661904D01*
X152338095Y-84757142D01*
%TO.C,R9*%
X178752380Y-121066666D02*
X178276190Y-121400000D01*
X178752380Y-121638095D02*
X177752380Y-121638095D01*
X177752380Y-121257142D01*
X177800000Y-121161904D01*
X177847619Y-121114285D01*
X177942857Y-121066666D01*
X178085714Y-121066666D01*
X178180952Y-121114285D01*
X178228571Y-121161904D01*
X178276190Y-121257142D01*
X178276190Y-121638095D01*
X178752380Y-120590476D02*
X178752380Y-120400000D01*
X178704761Y-120304761D01*
X178657142Y-120257142D01*
X178514285Y-120161904D01*
X178323809Y-120114285D01*
X177942857Y-120114285D01*
X177847619Y-120161904D01*
X177800000Y-120209523D01*
X177752380Y-120304761D01*
X177752380Y-120495238D01*
X177800000Y-120590476D01*
X177847619Y-120638095D01*
X177942857Y-120685714D01*
X178180952Y-120685714D01*
X178276190Y-120638095D01*
X178323809Y-120590476D01*
X178371428Y-120495238D01*
X178371428Y-120304761D01*
X178323809Y-120209523D01*
X178276190Y-120161904D01*
X178180952Y-120114285D01*
%TO.C,R12*%
X133602380Y-116842857D02*
X133126190Y-117176190D01*
X133602380Y-117414285D02*
X132602380Y-117414285D01*
X132602380Y-117033333D01*
X132650000Y-116938095D01*
X132697619Y-116890476D01*
X132792857Y-116842857D01*
X132935714Y-116842857D01*
X133030952Y-116890476D01*
X133078571Y-116938095D01*
X133126190Y-117033333D01*
X133126190Y-117414285D01*
X133602380Y-115890476D02*
X133602380Y-116461904D01*
X133602380Y-116176190D02*
X132602380Y-116176190D01*
X132745238Y-116271428D01*
X132840476Y-116366666D01*
X132888095Y-116461904D01*
X132697619Y-115509523D02*
X132650000Y-115461904D01*
X132602380Y-115366666D01*
X132602380Y-115128571D01*
X132650000Y-115033333D01*
X132697619Y-114985714D01*
X132792857Y-114938095D01*
X132888095Y-114938095D01*
X133030952Y-114985714D01*
X133602380Y-115557142D01*
X133602380Y-114938095D01*
%TO.C,U1*%
X135238095Y-89002380D02*
X135238095Y-89811904D01*
X135285714Y-89907142D01*
X135333333Y-89954761D01*
X135428571Y-90002380D01*
X135619047Y-90002380D01*
X135714285Y-89954761D01*
X135761904Y-89907142D01*
X135809523Y-89811904D01*
X135809523Y-89002380D01*
X136809523Y-90002380D02*
X136238095Y-90002380D01*
X136523809Y-90002380D02*
X136523809Y-89002380D01*
X136428571Y-89145238D01*
X136333333Y-89240476D01*
X136238095Y-89288095D01*
%TO.C,C17*%
X137557142Y-106657142D02*
X137509523Y-106704761D01*
X137366666Y-106752380D01*
X137271428Y-106752380D01*
X137128571Y-106704761D01*
X137033333Y-106609523D01*
X136985714Y-106514285D01*
X136938095Y-106323809D01*
X136938095Y-106180952D01*
X136985714Y-105990476D01*
X137033333Y-105895238D01*
X137128571Y-105800000D01*
X137271428Y-105752380D01*
X137366666Y-105752380D01*
X137509523Y-105800000D01*
X137557142Y-105847619D01*
X138509523Y-106752380D02*
X137938095Y-106752380D01*
X138223809Y-106752380D02*
X138223809Y-105752380D01*
X138128571Y-105895238D01*
X138033333Y-105990476D01*
X137938095Y-106038095D01*
X138842857Y-105752380D02*
X139509523Y-105752380D01*
X139080952Y-106752380D01*
%TO.C,J4*%
X100752380Y-84233333D02*
X101466666Y-84233333D01*
X101609523Y-84280952D01*
X101704761Y-84376190D01*
X101752380Y-84519047D01*
X101752380Y-84614285D01*
X101085714Y-83328571D02*
X101752380Y-83328571D01*
X100704761Y-83566666D02*
X101419047Y-83804761D01*
X101419047Y-83185714D01*
%TO.C,R13*%
X129302380Y-118842857D02*
X128826190Y-119176190D01*
X129302380Y-119414285D02*
X128302380Y-119414285D01*
X128302380Y-119033333D01*
X128350000Y-118938095D01*
X128397619Y-118890476D01*
X128492857Y-118842857D01*
X128635714Y-118842857D01*
X128730952Y-118890476D01*
X128778571Y-118938095D01*
X128826190Y-119033333D01*
X128826190Y-119414285D01*
X129302380Y-117890476D02*
X129302380Y-118461904D01*
X129302380Y-118176190D02*
X128302380Y-118176190D01*
X128445238Y-118271428D01*
X128540476Y-118366666D01*
X128588095Y-118461904D01*
X128302380Y-117557142D02*
X128302380Y-116938095D01*
X128683333Y-117271428D01*
X128683333Y-117128571D01*
X128730952Y-117033333D01*
X128778571Y-116985714D01*
X128873809Y-116938095D01*
X129111904Y-116938095D01*
X129207142Y-116985714D01*
X129254761Y-117033333D01*
X129302380Y-117128571D01*
X129302380Y-117414285D01*
X129254761Y-117509523D01*
X129207142Y-117557142D01*
%TO.C,R8*%
X130333333Y-109752380D02*
X130000000Y-109276190D01*
X129761904Y-109752380D02*
X129761904Y-108752380D01*
X130142857Y-108752380D01*
X130238095Y-108800000D01*
X130285714Y-108847619D01*
X130333333Y-108942857D01*
X130333333Y-109085714D01*
X130285714Y-109180952D01*
X130238095Y-109228571D01*
X130142857Y-109276190D01*
X129761904Y-109276190D01*
X130904761Y-109180952D02*
X130809523Y-109133333D01*
X130761904Y-109085714D01*
X130714285Y-108990476D01*
X130714285Y-108942857D01*
X130761904Y-108847619D01*
X130809523Y-108800000D01*
X130904761Y-108752380D01*
X131095238Y-108752380D01*
X131190476Y-108800000D01*
X131238095Y-108847619D01*
X131285714Y-108942857D01*
X131285714Y-108990476D01*
X131238095Y-109085714D01*
X131190476Y-109133333D01*
X131095238Y-109180952D01*
X130904761Y-109180952D01*
X130809523Y-109228571D01*
X130761904Y-109276190D01*
X130714285Y-109371428D01*
X130714285Y-109561904D01*
X130761904Y-109657142D01*
X130809523Y-109704761D01*
X130904761Y-109752380D01*
X131095238Y-109752380D01*
X131190476Y-109704761D01*
X131238095Y-109657142D01*
X131285714Y-109561904D01*
X131285714Y-109371428D01*
X131238095Y-109276190D01*
X131190476Y-109228571D01*
X131095238Y-109180952D01*
%TO.C,R15*%
X132157142Y-105852380D02*
X131823809Y-105376190D01*
X131585714Y-105852380D02*
X131585714Y-104852380D01*
X131966666Y-104852380D01*
X132061904Y-104900000D01*
X132109523Y-104947619D01*
X132157142Y-105042857D01*
X132157142Y-105185714D01*
X132109523Y-105280952D01*
X132061904Y-105328571D01*
X131966666Y-105376190D01*
X131585714Y-105376190D01*
X133109523Y-105852380D02*
X132538095Y-105852380D01*
X132823809Y-105852380D02*
X132823809Y-104852380D01*
X132728571Y-104995238D01*
X132633333Y-105090476D01*
X132538095Y-105138095D01*
X134014285Y-104852380D02*
X133538095Y-104852380D01*
X133490476Y-105328571D01*
X133538095Y-105280952D01*
X133633333Y-105233333D01*
X133871428Y-105233333D01*
X133966666Y-105280952D01*
X134014285Y-105328571D01*
X134061904Y-105423809D01*
X134061904Y-105661904D01*
X134014285Y-105757142D01*
X133966666Y-105804761D01*
X133871428Y-105852380D01*
X133633333Y-105852380D01*
X133538095Y-105804761D01*
X133490476Y-105757142D01*
%TO.C,R3*%
X100733333Y-94052380D02*
X100400000Y-93576190D01*
X100161904Y-94052380D02*
X100161904Y-93052380D01*
X100542857Y-93052380D01*
X100638095Y-93100000D01*
X100685714Y-93147619D01*
X100733333Y-93242857D01*
X100733333Y-93385714D01*
X100685714Y-93480952D01*
X100638095Y-93528571D01*
X100542857Y-93576190D01*
X100161904Y-93576190D01*
X101066666Y-93052380D02*
X101685714Y-93052380D01*
X101352380Y-93433333D01*
X101495238Y-93433333D01*
X101590476Y-93480952D01*
X101638095Y-93528571D01*
X101685714Y-93623809D01*
X101685714Y-93861904D01*
X101638095Y-93957142D01*
X101590476Y-94004761D01*
X101495238Y-94052380D01*
X101209523Y-94052380D01*
X101114285Y-94004761D01*
X101066666Y-93957142D01*
%TO.C,C2*%
X144833333Y-81757142D02*
X144785714Y-81804761D01*
X144642857Y-81852380D01*
X144547619Y-81852380D01*
X144404761Y-81804761D01*
X144309523Y-81709523D01*
X144261904Y-81614285D01*
X144214285Y-81423809D01*
X144214285Y-81280952D01*
X144261904Y-81090476D01*
X144309523Y-80995238D01*
X144404761Y-80900000D01*
X144547619Y-80852380D01*
X144642857Y-80852380D01*
X144785714Y-80900000D01*
X144833333Y-80947619D01*
X145214285Y-80947619D02*
X145261904Y-80900000D01*
X145357142Y-80852380D01*
X145595238Y-80852380D01*
X145690476Y-80900000D01*
X145738095Y-80947619D01*
X145785714Y-81042857D01*
X145785714Y-81138095D01*
X145738095Y-81280952D01*
X145166666Y-81852380D01*
X145785714Y-81852380D01*
%TO.C,C8*%
X84857142Y-93366666D02*
X84904761Y-93414285D01*
X84952380Y-93557142D01*
X84952380Y-93652380D01*
X84904761Y-93795238D01*
X84809523Y-93890476D01*
X84714285Y-93938095D01*
X84523809Y-93985714D01*
X84380952Y-93985714D01*
X84190476Y-93938095D01*
X84095238Y-93890476D01*
X84000000Y-93795238D01*
X83952380Y-93652380D01*
X83952380Y-93557142D01*
X84000000Y-93414285D01*
X84047619Y-93366666D01*
X84380952Y-92795238D02*
X84333333Y-92890476D01*
X84285714Y-92938095D01*
X84190476Y-92985714D01*
X84142857Y-92985714D01*
X84047619Y-92938095D01*
X84000000Y-92890476D01*
X83952380Y-92795238D01*
X83952380Y-92604761D01*
X84000000Y-92509523D01*
X84047619Y-92461904D01*
X84142857Y-92414285D01*
X84190476Y-92414285D01*
X84285714Y-92461904D01*
X84333333Y-92509523D01*
X84380952Y-92604761D01*
X84380952Y-92795238D01*
X84428571Y-92890476D01*
X84476190Y-92938095D01*
X84571428Y-92985714D01*
X84761904Y-92985714D01*
X84857142Y-92938095D01*
X84904761Y-92890476D01*
X84952380Y-92795238D01*
X84952380Y-92604761D01*
X84904761Y-92509523D01*
X84857142Y-92461904D01*
X84761904Y-92414285D01*
X84571428Y-92414285D01*
X84476190Y-92461904D01*
X84428571Y-92509523D01*
X84380952Y-92604761D01*
%TO.C,U4*%
X153838095Y-107152380D02*
X153838095Y-107961904D01*
X153885714Y-108057142D01*
X153933333Y-108104761D01*
X154028571Y-108152380D01*
X154219047Y-108152380D01*
X154314285Y-108104761D01*
X154361904Y-108057142D01*
X154409523Y-107961904D01*
X154409523Y-107152380D01*
X155314285Y-107485714D02*
X155314285Y-108152380D01*
X155076190Y-107104761D02*
X154838095Y-107819047D01*
X155457142Y-107819047D01*
%TO.C,R1*%
X126502380Y-98066666D02*
X126026190Y-98400000D01*
X126502380Y-98638095D02*
X125502380Y-98638095D01*
X125502380Y-98257142D01*
X125550000Y-98161904D01*
X125597619Y-98114285D01*
X125692857Y-98066666D01*
X125835714Y-98066666D01*
X125930952Y-98114285D01*
X125978571Y-98161904D01*
X126026190Y-98257142D01*
X126026190Y-98638095D01*
X126502380Y-97114285D02*
X126502380Y-97685714D01*
X126502380Y-97400000D02*
X125502380Y-97400000D01*
X125645238Y-97495238D01*
X125740476Y-97590476D01*
X125788095Y-97685714D01*
%TO.C,C14*%
X172877142Y-121542857D02*
X172924761Y-121590476D01*
X172972380Y-121733333D01*
X172972380Y-121828571D01*
X172924761Y-121971428D01*
X172829523Y-122066666D01*
X172734285Y-122114285D01*
X172543809Y-122161904D01*
X172400952Y-122161904D01*
X172210476Y-122114285D01*
X172115238Y-122066666D01*
X172020000Y-121971428D01*
X171972380Y-121828571D01*
X171972380Y-121733333D01*
X172020000Y-121590476D01*
X172067619Y-121542857D01*
X172972380Y-120590476D02*
X172972380Y-121161904D01*
X172972380Y-120876190D02*
X171972380Y-120876190D01*
X172115238Y-120971428D01*
X172210476Y-121066666D01*
X172258095Y-121161904D01*
X172305714Y-119733333D02*
X172972380Y-119733333D01*
X171924761Y-119971428D02*
X172639047Y-120209523D01*
X172639047Y-119590476D01*
%TO.C,C4*%
X125277142Y-87166666D02*
X125324761Y-87214285D01*
X125372380Y-87357142D01*
X125372380Y-87452380D01*
X125324761Y-87595238D01*
X125229523Y-87690476D01*
X125134285Y-87738095D01*
X124943809Y-87785714D01*
X124800952Y-87785714D01*
X124610476Y-87738095D01*
X124515238Y-87690476D01*
X124420000Y-87595238D01*
X124372380Y-87452380D01*
X124372380Y-87357142D01*
X124420000Y-87214285D01*
X124467619Y-87166666D01*
X124705714Y-86309523D02*
X125372380Y-86309523D01*
X124324761Y-86547619D02*
X125039047Y-86785714D01*
X125039047Y-86166666D01*
%TO.C,R7*%
X100202380Y-74266666D02*
X99726190Y-74600000D01*
X100202380Y-74838095D02*
X99202380Y-74838095D01*
X99202380Y-74457142D01*
X99250000Y-74361904D01*
X99297619Y-74314285D01*
X99392857Y-74266666D01*
X99535714Y-74266666D01*
X99630952Y-74314285D01*
X99678571Y-74361904D01*
X99726190Y-74457142D01*
X99726190Y-74838095D01*
X99202380Y-73933333D02*
X99202380Y-73266666D01*
X100202380Y-73695238D01*
%TO.C,D1*%
X166756904Y-108992380D02*
X166756904Y-107992380D01*
X166995000Y-107992380D01*
X167137857Y-108040000D01*
X167233095Y-108135238D01*
X167280714Y-108230476D01*
X167328333Y-108420952D01*
X167328333Y-108563809D01*
X167280714Y-108754285D01*
X167233095Y-108849523D01*
X167137857Y-108944761D01*
X166995000Y-108992380D01*
X166756904Y-108992380D01*
X168280714Y-108992380D02*
X167709285Y-108992380D01*
X167995000Y-108992380D02*
X167995000Y-107992380D01*
X167899761Y-108135238D01*
X167804523Y-108230476D01*
X167709285Y-108278095D01*
%TO.C,R2*%
X99433333Y-88702380D02*
X99100000Y-88226190D01*
X98861904Y-88702380D02*
X98861904Y-87702380D01*
X99242857Y-87702380D01*
X99338095Y-87750000D01*
X99385714Y-87797619D01*
X99433333Y-87892857D01*
X99433333Y-88035714D01*
X99385714Y-88130952D01*
X99338095Y-88178571D01*
X99242857Y-88226190D01*
X98861904Y-88226190D01*
X99814285Y-87797619D02*
X99861904Y-87750000D01*
X99957142Y-87702380D01*
X100195238Y-87702380D01*
X100290476Y-87750000D01*
X100338095Y-87797619D01*
X100385714Y-87892857D01*
X100385714Y-87988095D01*
X100338095Y-88130952D01*
X99766666Y-88702380D01*
X100385714Y-88702380D01*
%TO.C,U2*%
X89638095Y-83702380D02*
X89638095Y-84511904D01*
X89685714Y-84607142D01*
X89733333Y-84654761D01*
X89828571Y-84702380D01*
X90019047Y-84702380D01*
X90114285Y-84654761D01*
X90161904Y-84607142D01*
X90209523Y-84511904D01*
X90209523Y-83702380D01*
X90638095Y-83797619D02*
X90685714Y-83750000D01*
X90780952Y-83702380D01*
X91019047Y-83702380D01*
X91114285Y-83750000D01*
X91161904Y-83797619D01*
X91209523Y-83892857D01*
X91209523Y-83988095D01*
X91161904Y-84130952D01*
X90590476Y-84702380D01*
X91209523Y-84702380D01*
%TO.C,R10*%
X130957142Y-121652380D02*
X130623809Y-121176190D01*
X130385714Y-121652380D02*
X130385714Y-120652380D01*
X130766666Y-120652380D01*
X130861904Y-120700000D01*
X130909523Y-120747619D01*
X130957142Y-120842857D01*
X130957142Y-120985714D01*
X130909523Y-121080952D01*
X130861904Y-121128571D01*
X130766666Y-121176190D01*
X130385714Y-121176190D01*
X131909523Y-121652380D02*
X131338095Y-121652380D01*
X131623809Y-121652380D02*
X131623809Y-120652380D01*
X131528571Y-120795238D01*
X131433333Y-120890476D01*
X131338095Y-120938095D01*
X132528571Y-120652380D02*
X132623809Y-120652380D01*
X132719047Y-120700000D01*
X132766666Y-120747619D01*
X132814285Y-120842857D01*
X132861904Y-121033333D01*
X132861904Y-121271428D01*
X132814285Y-121461904D01*
X132766666Y-121557142D01*
X132719047Y-121604761D01*
X132623809Y-121652380D01*
X132528571Y-121652380D01*
X132433333Y-121604761D01*
X132385714Y-121557142D01*
X132338095Y-121461904D01*
X132290476Y-121271428D01*
X132290476Y-121033333D01*
X132338095Y-120842857D01*
X132385714Y-120747619D01*
X132433333Y-120700000D01*
X132528571Y-120652380D01*
%TO.C,C6*%
X97433333Y-97437142D02*
X97385714Y-97484761D01*
X97242857Y-97532380D01*
X97147619Y-97532380D01*
X97004761Y-97484761D01*
X96909523Y-97389523D01*
X96861904Y-97294285D01*
X96814285Y-97103809D01*
X96814285Y-96960952D01*
X96861904Y-96770476D01*
X96909523Y-96675238D01*
X97004761Y-96580000D01*
X97147619Y-96532380D01*
X97242857Y-96532380D01*
X97385714Y-96580000D01*
X97433333Y-96627619D01*
X98290476Y-96532380D02*
X98100000Y-96532380D01*
X98004761Y-96580000D01*
X97957142Y-96627619D01*
X97861904Y-96770476D01*
X97814285Y-96960952D01*
X97814285Y-97341904D01*
X97861904Y-97437142D01*
X97909523Y-97484761D01*
X98004761Y-97532380D01*
X98195238Y-97532380D01*
X98290476Y-97484761D01*
X98338095Y-97437142D01*
X98385714Y-97341904D01*
X98385714Y-97103809D01*
X98338095Y-97008571D01*
X98290476Y-96960952D01*
X98195238Y-96913333D01*
X98004761Y-96913333D01*
X97909523Y-96960952D01*
X97861904Y-97008571D01*
X97814285Y-97103809D01*
%TO.C,C9*%
X97357142Y-89766666D02*
X97404761Y-89814285D01*
X97452380Y-89957142D01*
X97452380Y-90052380D01*
X97404761Y-90195238D01*
X97309523Y-90290476D01*
X97214285Y-90338095D01*
X97023809Y-90385714D01*
X96880952Y-90385714D01*
X96690476Y-90338095D01*
X96595238Y-90290476D01*
X96500000Y-90195238D01*
X96452380Y-90052380D01*
X96452380Y-89957142D01*
X96500000Y-89814285D01*
X96547619Y-89766666D01*
X97452380Y-89290476D02*
X97452380Y-89100000D01*
X97404761Y-89004761D01*
X97357142Y-88957142D01*
X97214285Y-88861904D01*
X97023809Y-88814285D01*
X96642857Y-88814285D01*
X96547619Y-88861904D01*
X96500000Y-88909523D01*
X96452380Y-89004761D01*
X96452380Y-89195238D01*
X96500000Y-89290476D01*
X96547619Y-89338095D01*
X96642857Y-89385714D01*
X96880952Y-89385714D01*
X96976190Y-89338095D01*
X97023809Y-89290476D01*
X97071428Y-89195238D01*
X97071428Y-89004761D01*
X97023809Y-88909523D01*
X96976190Y-88861904D01*
X96880952Y-88814285D01*
%TO.C,R4*%
X127533333Y-81502380D02*
X127200000Y-81026190D01*
X126961904Y-81502380D02*
X126961904Y-80502380D01*
X127342857Y-80502380D01*
X127438095Y-80550000D01*
X127485714Y-80597619D01*
X127533333Y-80692857D01*
X127533333Y-80835714D01*
X127485714Y-80930952D01*
X127438095Y-80978571D01*
X127342857Y-81026190D01*
X126961904Y-81026190D01*
X128390476Y-80835714D02*
X128390476Y-81502380D01*
X128152380Y-80454761D02*
X127914285Y-81169047D01*
X128533333Y-81169047D01*
%TO.C,C16*%
X133757142Y-111157142D02*
X133709523Y-111204761D01*
X133566666Y-111252380D01*
X133471428Y-111252380D01*
X133328571Y-111204761D01*
X133233333Y-111109523D01*
X133185714Y-111014285D01*
X133138095Y-110823809D01*
X133138095Y-110680952D01*
X133185714Y-110490476D01*
X133233333Y-110395238D01*
X133328571Y-110300000D01*
X133471428Y-110252380D01*
X133566666Y-110252380D01*
X133709523Y-110300000D01*
X133757142Y-110347619D01*
X134709523Y-111252380D02*
X134138095Y-111252380D01*
X134423809Y-111252380D02*
X134423809Y-110252380D01*
X134328571Y-110395238D01*
X134233333Y-110490476D01*
X134138095Y-110538095D01*
X135566666Y-110252380D02*
X135376190Y-110252380D01*
X135280952Y-110300000D01*
X135233333Y-110347619D01*
X135138095Y-110490476D01*
X135090476Y-110680952D01*
X135090476Y-111061904D01*
X135138095Y-111157142D01*
X135185714Y-111204761D01*
X135280952Y-111252380D01*
X135471428Y-111252380D01*
X135566666Y-111204761D01*
X135614285Y-111157142D01*
X135661904Y-111061904D01*
X135661904Y-110823809D01*
X135614285Y-110728571D01*
X135566666Y-110680952D01*
X135471428Y-110633333D01*
X135280952Y-110633333D01*
X135185714Y-110680952D01*
X135138095Y-110728571D01*
X135090476Y-110823809D01*
%TO.C,J3*%
X160366666Y-90622380D02*
X160366666Y-91336666D01*
X160319047Y-91479523D01*
X160223809Y-91574761D01*
X160080952Y-91622380D01*
X159985714Y-91622380D01*
X160747619Y-90622380D02*
X161366666Y-90622380D01*
X161033333Y-91003333D01*
X161176190Y-91003333D01*
X161271428Y-91050952D01*
X161319047Y-91098571D01*
X161366666Y-91193809D01*
X161366666Y-91431904D01*
X161319047Y-91527142D01*
X161271428Y-91574761D01*
X161176190Y-91622380D01*
X160890476Y-91622380D01*
X160795238Y-91574761D01*
X160747619Y-91527142D01*
%TO.C,R11*%
X170957142Y-116352380D02*
X170623809Y-115876190D01*
X170385714Y-116352380D02*
X170385714Y-115352380D01*
X170766666Y-115352380D01*
X170861904Y-115400000D01*
X170909523Y-115447619D01*
X170957142Y-115542857D01*
X170957142Y-115685714D01*
X170909523Y-115780952D01*
X170861904Y-115828571D01*
X170766666Y-115876190D01*
X170385714Y-115876190D01*
X171909523Y-116352380D02*
X171338095Y-116352380D01*
X171623809Y-116352380D02*
X171623809Y-115352380D01*
X171528571Y-115495238D01*
X171433333Y-115590476D01*
X171338095Y-115638095D01*
X172861904Y-116352380D02*
X172290476Y-116352380D01*
X172576190Y-116352380D02*
X172576190Y-115352380D01*
X172480952Y-115495238D01*
X172385714Y-115590476D01*
X172290476Y-115638095D01*
%TO.C,C15*%
X147657142Y-100457142D02*
X147609523Y-100504761D01*
X147466666Y-100552380D01*
X147371428Y-100552380D01*
X147228571Y-100504761D01*
X147133333Y-100409523D01*
X147085714Y-100314285D01*
X147038095Y-100123809D01*
X147038095Y-99980952D01*
X147085714Y-99790476D01*
X147133333Y-99695238D01*
X147228571Y-99600000D01*
X147371428Y-99552380D01*
X147466666Y-99552380D01*
X147609523Y-99600000D01*
X147657142Y-99647619D01*
X148609523Y-100552380D02*
X148038095Y-100552380D01*
X148323809Y-100552380D02*
X148323809Y-99552380D01*
X148228571Y-99695238D01*
X148133333Y-99790476D01*
X148038095Y-99838095D01*
X149514285Y-99552380D02*
X149038095Y-99552380D01*
X148990476Y-100028571D01*
X149038095Y-99980952D01*
X149133333Y-99933333D01*
X149371428Y-99933333D01*
X149466666Y-99980952D01*
X149514285Y-100028571D01*
X149561904Y-100123809D01*
X149561904Y-100361904D01*
X149514285Y-100457142D01*
X149466666Y-100504761D01*
X149371428Y-100552380D01*
X149133333Y-100552380D01*
X149038095Y-100504761D01*
X148990476Y-100457142D01*
%TO.C,C5*%
X129157142Y-90166666D02*
X129204761Y-90214285D01*
X129252380Y-90357142D01*
X129252380Y-90452380D01*
X129204761Y-90595238D01*
X129109523Y-90690476D01*
X129014285Y-90738095D01*
X128823809Y-90785714D01*
X128680952Y-90785714D01*
X128490476Y-90738095D01*
X128395238Y-90690476D01*
X128300000Y-90595238D01*
X128252380Y-90452380D01*
X128252380Y-90357142D01*
X128300000Y-90214285D01*
X128347619Y-90166666D01*
X128252380Y-89261904D02*
X128252380Y-89738095D01*
X128728571Y-89785714D01*
X128680952Y-89738095D01*
X128633333Y-89642857D01*
X128633333Y-89404761D01*
X128680952Y-89309523D01*
X128728571Y-89261904D01*
X128823809Y-89214285D01*
X129061904Y-89214285D01*
X129157142Y-89261904D01*
X129204761Y-89309523D01*
X129252380Y-89404761D01*
X129252380Y-89642857D01*
X129204761Y-89738095D01*
X129157142Y-89785714D01*
%TO.C,C1*%
X141833333Y-92557142D02*
X141785714Y-92604761D01*
X141642857Y-92652380D01*
X141547619Y-92652380D01*
X141404761Y-92604761D01*
X141309523Y-92509523D01*
X141261904Y-92414285D01*
X141214285Y-92223809D01*
X141214285Y-92080952D01*
X141261904Y-91890476D01*
X141309523Y-91795238D01*
X141404761Y-91700000D01*
X141547619Y-91652380D01*
X141642857Y-91652380D01*
X141785714Y-91700000D01*
X141833333Y-91747619D01*
X142785714Y-92652380D02*
X142214285Y-92652380D01*
X142500000Y-92652380D02*
X142500000Y-91652380D01*
X142404761Y-91795238D01*
X142309523Y-91890476D01*
X142214285Y-91938095D01*
%TO.C,J2*%
X160366666Y-73622380D02*
X160366666Y-74336666D01*
X160319047Y-74479523D01*
X160223809Y-74574761D01*
X160080952Y-74622380D01*
X159985714Y-74622380D01*
X160795238Y-73717619D02*
X160842857Y-73670000D01*
X160938095Y-73622380D01*
X161176190Y-73622380D01*
X161271428Y-73670000D01*
X161319047Y-73717619D01*
X161366666Y-73812857D01*
X161366666Y-73908095D01*
X161319047Y-74050952D01*
X160747619Y-74622380D01*
X161366666Y-74622380D01*
%TO.C,C13*%
X155757142Y-123442857D02*
X155804761Y-123490476D01*
X155852380Y-123633333D01*
X155852380Y-123728571D01*
X155804761Y-123871428D01*
X155709523Y-123966666D01*
X155614285Y-124014285D01*
X155423809Y-124061904D01*
X155280952Y-124061904D01*
X155090476Y-124014285D01*
X154995238Y-123966666D01*
X154900000Y-123871428D01*
X154852380Y-123728571D01*
X154852380Y-123633333D01*
X154900000Y-123490476D01*
X154947619Y-123442857D01*
X155852380Y-122490476D02*
X155852380Y-123061904D01*
X155852380Y-122776190D02*
X154852380Y-122776190D01*
X154995238Y-122871428D01*
X155090476Y-122966666D01*
X155138095Y-123061904D01*
X154852380Y-122157142D02*
X154852380Y-121538095D01*
X155233333Y-121871428D01*
X155233333Y-121728571D01*
X155280952Y-121633333D01*
X155328571Y-121585714D01*
X155423809Y-121538095D01*
X155661904Y-121538095D01*
X155757142Y-121585714D01*
X155804761Y-121633333D01*
X155852380Y-121728571D01*
X155852380Y-122014285D01*
X155804761Y-122109523D01*
X155757142Y-122157142D01*
D11*
%TO.C,U5*%
X152320000Y-116000000D02*
X152320000Y-116400000D01*
X152320000Y-118000000D02*
X152320000Y-118400000D01*
X136080000Y-126000000D02*
X136080000Y-126400000D01*
X136080000Y-114000000D02*
X136080000Y-114400000D01*
X152320000Y-124000000D02*
X152320000Y-124400000D01*
X153350000Y-127700000D02*
X153350000Y-126700000D01*
X152320000Y-126000000D02*
X152320000Y-126400000D01*
X136080000Y-124000000D02*
X136080000Y-124400000D01*
X152320000Y-114000000D02*
X152320000Y-114400000D01*
X152320000Y-120000000D02*
X152320000Y-120400000D01*
X136080000Y-120000000D02*
X136080000Y-120400000D01*
X152320000Y-111580000D02*
X152320000Y-112400000D01*
X136080000Y-112400000D02*
X136080000Y-111580000D01*
X136080000Y-116000000D02*
X136080000Y-116400000D01*
X136080000Y-111580000D02*
X152320000Y-111580000D01*
X136080000Y-118000000D02*
X136080000Y-118400000D01*
X136080000Y-122000000D02*
X136080000Y-122400000D01*
X152320000Y-122000000D02*
X152320000Y-122400000D01*
%TO.C,R16*%
X131072936Y-126035000D02*
X131527064Y-126035000D01*
X131072936Y-124565000D02*
X131527064Y-124565000D01*
%TO.C,SW3*%
X164270000Y-122300000D02*
X164270000Y-119700000D01*
X170730000Y-124200000D02*
X170730000Y-124230000D01*
X170730000Y-122300000D02*
X170730000Y-119700000D01*
X164270000Y-117770000D02*
X164270000Y-117800000D01*
X170730000Y-117770000D02*
X164270000Y-117770000D01*
X164270000Y-124230000D02*
X164270000Y-124200000D01*
X170730000Y-124230000D02*
X164270000Y-124230000D01*
X170730000Y-117770000D02*
X170730000Y-117800000D01*
%TO.C,C3*%
X144761252Y-84265000D02*
X144238748Y-84265000D01*
X144761252Y-85735000D02*
X144238748Y-85735000D01*
%TO.C,R14*%
X132235000Y-111972936D02*
X132235000Y-112427064D01*
X130765000Y-111972936D02*
X130765000Y-112427064D01*
%TO.C,C12*%
X141535000Y-110285000D02*
X141535000Y-106200000D01*
X139665000Y-110285000D02*
X141535000Y-110285000D01*
X139665000Y-106200000D02*
X139665000Y-110285000D01*
%TO.C,J1*%
X84000000Y-73300000D02*
X82100000Y-73300000D01*
X87900000Y-82700000D02*
X85900000Y-82700000D01*
X84000000Y-82700000D02*
X82100000Y-82700000D01*
X82100000Y-73300000D02*
X82100000Y-82700000D01*
X87900000Y-73300000D02*
X85900000Y-73300000D01*
%TO.C,U3*%
X121817500Y-113230000D02*
X118847500Y-113230000D01*
X118847500Y-129950000D02*
X92247500Y-129950000D01*
X92247500Y-110050000D02*
X92247500Y-113230000D01*
X92247500Y-110050000D02*
X118847500Y-110050000D01*
X92247500Y-124230000D02*
X89317500Y-124230000D01*
X89117500Y-113030000D02*
X91687500Y-113030000D01*
X118847500Y-129950000D02*
X118847500Y-126730000D01*
X118847500Y-113230000D02*
X118847500Y-110050000D01*
X89317500Y-124230000D02*
X89317500Y-113230000D01*
X121817500Y-126730000D02*
X121817500Y-113230000D01*
X121817500Y-126730000D02*
X118847500Y-126730000D01*
X92247500Y-124230000D02*
X92247500Y-129950000D01*
X89117500Y-115460000D02*
X89117500Y-113030000D01*
X92247500Y-113230000D02*
X89317500Y-113230000D01*
%TO.C,Y1*%
X151650000Y-91200000D02*
X151650000Y-78600000D01*
X146550000Y-78600000D02*
X146550000Y-91200000D01*
X146550000Y-91200000D02*
X151650000Y-91200000D01*
%TO.C,R9*%
X175865000Y-121127064D02*
X175865000Y-120672936D01*
X177335000Y-121127064D02*
X177335000Y-120672936D01*
%TO.C,R12*%
X130765000Y-115972936D02*
X130765000Y-116427064D01*
X132235000Y-115972936D02*
X132235000Y-116427064D01*
%TO.C,U1*%
X136000000Y-88710000D02*
X139860000Y-88710000D01*
X139860000Y-88475000D02*
X141675000Y-88475000D01*
X139860000Y-75690000D02*
X139860000Y-75925000D01*
X132140000Y-75690000D02*
X132140000Y-75925000D01*
X136000000Y-75690000D02*
X139860000Y-75690000D01*
X139860000Y-88710000D02*
X139860000Y-88475000D01*
X136000000Y-75690000D02*
X132140000Y-75690000D01*
X132140000Y-88710000D02*
X132140000Y-88475000D01*
X136000000Y-88710000D02*
X132140000Y-88710000D01*
%TO.C,C17*%
X137661252Y-108735000D02*
X137138748Y-108735000D01*
X137661252Y-107265000D02*
X137138748Y-107265000D01*
%TO.C,J4*%
X103720000Y-96530000D02*
X103720000Y-70930000D01*
X111530000Y-97830000D02*
X102410000Y-97830000D01*
X110220000Y-81680000D02*
X110220000Y-81680000D01*
X110220000Y-70930000D02*
X110220000Y-81680000D01*
X110220000Y-85780000D02*
X110220000Y-96530000D01*
X110220000Y-81680000D02*
X111530000Y-81680000D01*
X111530000Y-85780000D02*
X110220000Y-85780000D01*
X102410000Y-69630000D02*
X111530000Y-69630000D01*
X110220000Y-96530000D02*
X103720000Y-96530000D01*
X112920000Y-93120000D02*
X112920000Y-92120000D01*
X102410000Y-97830000D02*
X102410000Y-69630000D01*
X111920000Y-92620000D02*
X112920000Y-93120000D01*
X103720000Y-70930000D02*
X110220000Y-70930000D01*
X112920000Y-92120000D02*
X111920000Y-92620000D01*
X111530000Y-69630000D02*
X111530000Y-97830000D01*
%TO.C,R13*%
X126465000Y-117972936D02*
X126465000Y-118427064D01*
X127935000Y-117972936D02*
X127935000Y-118427064D01*
%TO.C,R8*%
X133072936Y-108465000D02*
X133527064Y-108465000D01*
X133072936Y-109935000D02*
X133527064Y-109935000D01*
%TO.C,R15*%
X133072936Y-107735000D02*
X133527064Y-107735000D01*
X133072936Y-106265000D02*
X133527064Y-106265000D01*
%TO.C,R3*%
X99372936Y-92635000D02*
X99827064Y-92635000D01*
X99372936Y-91165000D02*
X99827064Y-91165000D01*
%TO.C,C2*%
X144761252Y-83735000D02*
X144238748Y-83735000D01*
X144761252Y-82265000D02*
X144238748Y-82265000D01*
%TO.C,C8*%
X83665000Y-88738748D02*
X83665000Y-89261252D01*
X85135000Y-88738748D02*
X85135000Y-89261252D01*
%TO.C,U4*%
X146730000Y-111050000D02*
X145230000Y-111050000D01*
X145230000Y-111050000D02*
X145230000Y-110780000D01*
X145230000Y-104150000D02*
X145230000Y-104420000D01*
X145230000Y-110780000D02*
X144130000Y-110780000D01*
X146730000Y-104150000D02*
X145230000Y-104150000D01*
X145230000Y-104420000D02*
X142400000Y-104420000D01*
%TO.C,R1*%
X128435000Y-98127064D02*
X128435000Y-97672936D01*
X126965000Y-98127064D02*
X126965000Y-97672936D01*
%TO.C,C14*%
X173465000Y-121161252D02*
X173465000Y-120638748D01*
X174935000Y-121161252D02*
X174935000Y-120638748D01*
%TO.C,C4*%
X125865000Y-87261252D02*
X125865000Y-86738748D01*
X127335000Y-87261252D02*
X127335000Y-86738748D01*
%TO.C,R7*%
X97365000Y-73872936D02*
X97365000Y-74327064D01*
X98835000Y-73872936D02*
X98835000Y-74327064D01*
%TO.C,D1*%
X165935000Y-112580000D02*
X165935000Y-112736000D01*
X165935000Y-110264000D02*
X165935000Y-110420000D01*
X166454039Y-112580000D02*
G75*
G03*
X168536130Y-112579837I1040961J1080000D01*
G01*
X168536130Y-110420163D02*
G75*
G03*
X166454039Y-110420000I-1041130J-1079837D01*
G01*
X169167335Y-110421392D02*
G75*
G03*
X165935000Y-110264484I-1672335J-1078608D01*
G01*
X165935000Y-112735516D02*
G75*
G03*
X169167335Y-112578608I1560000J1235516D01*
G01*
%TO.C,R2*%
X99372936Y-89165000D02*
X99827064Y-89165000D01*
X99372936Y-90635000D02*
X99827064Y-90635000D01*
D10*
%TO.C,U2*%
X93275000Y-95825000D02*
X93275000Y-95175000D01*
X87525000Y-95825000D02*
X87525000Y-95175000D01*
X93275000Y-85175000D02*
X93275000Y-85825000D01*
X87525000Y-95825000D02*
X93275000Y-95825000D01*
X87525000Y-85175000D02*
X87525000Y-85750000D01*
X87525000Y-85175000D02*
X93275000Y-85175000D01*
X87525000Y-85750000D02*
X85925000Y-85750000D01*
D11*
%TO.C,R10*%
X131772936Y-118665000D02*
X132227064Y-118665000D01*
X131772936Y-120135000D02*
X132227064Y-120135000D01*
%TO.C,C6*%
X97861252Y-96135000D02*
X97338748Y-96135000D01*
X97861252Y-94665000D02*
X97338748Y-94665000D01*
%TO.C,C9*%
X97435000Y-92238748D02*
X97435000Y-92761252D01*
X95965000Y-92238748D02*
X95965000Y-92761252D01*
%TO.C,R4*%
X127472936Y-83435000D02*
X127927064Y-83435000D01*
X127472936Y-81965000D02*
X127927064Y-81965000D01*
%TO.C,C16*%
X137661252Y-110935000D02*
X137138748Y-110935000D01*
X137661252Y-109465000D02*
X137138748Y-109465000D01*
%TO.C,J3*%
X159370000Y-92170000D02*
X160700000Y-92170000D01*
X162030000Y-94770000D02*
X162030000Y-94830000D01*
X159370000Y-94770000D02*
X159370000Y-94830000D01*
X159370000Y-94830000D02*
X162030000Y-94830000D01*
X159370000Y-93500000D02*
X159370000Y-92170000D01*
X159370000Y-94770000D02*
X162030000Y-94770000D01*
%TO.C,R11*%
X168027064Y-116635000D02*
X167572936Y-116635000D01*
X168027064Y-115165000D02*
X167572936Y-115165000D01*
%TO.C,C15*%
X150885000Y-101565000D02*
X146800000Y-101565000D01*
X150885000Y-103435000D02*
X150885000Y-101565000D01*
X146800000Y-103435000D02*
X150885000Y-103435000D01*
%TO.C,C5*%
X127865000Y-87261252D02*
X127865000Y-86738748D01*
X129335000Y-87261252D02*
X129335000Y-86738748D01*
%TO.C,C1*%
X142161252Y-89865000D02*
X141638748Y-89865000D01*
X142161252Y-91335000D02*
X141638748Y-91335000D01*
%TO.C,J2*%
X159370000Y-77770000D02*
X159370000Y-77830000D01*
X159370000Y-77770000D02*
X162030000Y-77770000D01*
X159370000Y-77830000D02*
X162030000Y-77830000D01*
X159370000Y-76500000D02*
X159370000Y-75170000D01*
X159370000Y-75170000D02*
X160700000Y-75170000D01*
X162030000Y-77770000D02*
X162030000Y-77830000D01*
%TO.C,C13*%
X156235000Y-126001248D02*
X156235000Y-126523752D01*
X154765000Y-126001248D02*
X154765000Y-126523752D01*
%TD*%
M02*
