%TF.GenerationSoftware,KiCad,Pcbnew,(6.0.11)*%
%TF.CreationDate,2024-04-14T23:22:21+03:00*%
%TF.ProjectId,avr-co2-detector,6176722d-636f-4322-9d64-65746563746f,rev. 1*%
%TF.SameCoordinates,Original*%
%TF.FileFunction,Soldermask,Top*%
%TF.FilePolarity,Negative*%
%FSLAX46Y46*%
G04 Gerber Fmt 4.6, Leading zero omitted, Abs format (unit mm)*
G04 Created by KiCad (PCBNEW (6.0.11)) date 2024-04-14 23:22:21*
%MOMM*%
%LPD*%
G01*
G04 APERTURE LIST*
G04 Aperture macros list*
%AMRoundRect*
0 Rectangle with rounded corners*
0 $1 Rounding radius*
0 $2 $3 $4 $5 $6 $7 $8 $9 X,Y pos of 4 corners*
0 Add a 4 corners polygon primitive as box body*
4,1,4,$2,$3,$4,$5,$6,$7,$8,$9,$2,$3,0*
0 Add four circle primitives for the rounded corners*
1,1,$1+$1,$2,$3*
1,1,$1+$1,$4,$5*
1,1,$1+$1,$6,$7*
1,1,$1+$1,$8,$9*
0 Add four rect primitives between the rounded corners*
20,1,$1+$1,$2,$3,$4,$5,0*
20,1,$1+$1,$4,$5,$6,$7,0*
20,1,$1+$1,$6,$7,$8,$9,0*
20,1,$1+$1,$8,$9,$2,$3,0*%
G04 Aperture macros list end*
%ADD10C,3.200000*%
%ADD11R,2.500000X1.000000*%
%ADD12RoundRect,0.250000X-0.350000X-0.450000X0.350000X-0.450000X0.350000X0.450000X-0.350000X0.450000X0*%
%ADD13R,1.550000X1.300000*%
%ADD14RoundRect,0.250000X0.337500X0.475000X-0.337500X0.475000X-0.337500X-0.475000X0.337500X-0.475000X0*%
%ADD15RoundRect,0.250000X-0.450000X0.350000X-0.450000X-0.350000X0.450000X-0.350000X0.450000X0.350000X0*%
%ADD16C,3.000000*%
%ADD17RoundRect,0.250000X0.425000X-0.537500X0.425000X0.537500X-0.425000X0.537500X-0.425000X-0.537500X0*%
%ADD18C,0.650000*%
%ADD19R,1.450000X0.600000*%
%ADD20R,1.450000X0.300000*%
%ADD21O,2.100000X1.000000*%
%ADD22O,1.600000X1.000000*%
%ADD23R,1.700000X1.700000*%
%ADD24C,1.700000*%
%ADD25R,2.000000X4.500000*%
%ADD26RoundRect,0.250000X0.450000X-0.350000X0.450000X0.350000X-0.450000X0.350000X-0.450000X-0.350000X0*%
%ADD27RoundRect,0.150000X0.875000X0.150000X-0.875000X0.150000X-0.875000X-0.150000X0.875000X-0.150000X0*%
%ADD28RoundRect,0.250000X0.600000X0.600000X-0.600000X0.600000X-0.600000X-0.600000X0.600000X-0.600000X0*%
%ADD29RoundRect,0.250000X-0.475000X0.337500X-0.475000X-0.337500X0.475000X-0.337500X0.475000X0.337500X0*%
%ADD30R,2.200000X1.200000*%
%ADD31R,6.400000X5.800000*%
%ADD32RoundRect,0.250000X0.475000X-0.337500X0.475000X0.337500X-0.475000X0.337500X-0.475000X-0.337500X0*%
%ADD33R,1.800000X1.800000*%
%ADD34C,1.800000*%
%ADD35R,1.750000X0.450000*%
%ADD36RoundRect,0.250000X0.350000X0.450000X-0.350000X0.450000X-0.350000X-0.450000X0.350000X-0.450000X0*%
%ADD37RoundRect,0.250000X0.537500X0.425000X-0.537500X0.425000X-0.537500X-0.425000X0.537500X-0.425000X0*%
%ADD38O,1.700000X1.700000*%
%ADD39R,1.000000X1.000000*%
%ADD40O,1.000000X1.000000*%
%ADD41RoundRect,0.250000X-0.600000X0.600000X-0.600000X-0.600000X0.600000X-0.600000X0.600000X0.600000X0*%
G04 APERTURE END LIST*
D10*
%TO.C,REF\u002A\u002A*%
X179000000Y-130000000D03*
%TD*%
D11*
%TO.C,U5*%
X151800000Y-127200000D03*
X151800000Y-125200000D03*
X151800000Y-123200000D03*
X151800000Y-121200000D03*
X151800000Y-119200000D03*
X151800000Y-117200000D03*
X151800000Y-115200000D03*
X151800000Y-113200000D03*
X136600000Y-113200000D03*
X136600000Y-115200000D03*
X136600000Y-117200000D03*
X136600000Y-119200000D03*
X136600000Y-121200000D03*
X136600000Y-123200000D03*
X136600000Y-125200000D03*
X136600000Y-127200000D03*
%TD*%
D12*
%TO.C,R16*%
X130300000Y-125300000D03*
X132300000Y-125300000D03*
%TD*%
D13*
%TO.C,SW3*%
X171475000Y-123250000D03*
X163525000Y-123250000D03*
X163525000Y-118750000D03*
X171475000Y-118750000D03*
%TD*%
D14*
%TO.C,C3*%
X145537500Y-85000000D03*
X143462500Y-85000000D03*
%TD*%
D15*
%TO.C,R14*%
X131500000Y-111200000D03*
X131500000Y-113200000D03*
%TD*%
D16*
%TO.C,REF\u002A\u002A*%
X106500000Y-98500000D03*
%TD*%
D10*
%TO.C,REF\u002A\u002A*%
X179000000Y-68000000D03*
%TD*%
D17*
%TO.C,C12*%
X140600000Y-109237500D03*
X140600000Y-106362500D03*
%TD*%
D18*
%TO.C,J1*%
X88600000Y-75110000D03*
X88600000Y-80890000D03*
D19*
X90045000Y-74750000D03*
X90045000Y-75550000D03*
D20*
X90045000Y-76750000D03*
X90045000Y-77750000D03*
X90045000Y-78250000D03*
X90045000Y-79250000D03*
D19*
X90045000Y-80450000D03*
X90045000Y-81250000D03*
X90045000Y-81250000D03*
X90045000Y-80450000D03*
D20*
X90045000Y-79750000D03*
X90045000Y-78750000D03*
X90045000Y-77250000D03*
X90045000Y-76250000D03*
D19*
X90045000Y-75550000D03*
X90045000Y-74750000D03*
D21*
X89130000Y-73680000D03*
D22*
X84950000Y-73680000D03*
D21*
X89130000Y-82320000D03*
D22*
X84950000Y-82320000D03*
%TD*%
D23*
%TO.C,U3*%
X90697500Y-114920000D03*
D24*
X90697500Y-117460000D03*
X90697500Y-120000000D03*
X90697500Y-122540000D03*
X120397500Y-125080000D03*
X120397500Y-122540000D03*
X120397500Y-120000000D03*
X120397500Y-117460000D03*
X120397500Y-114920000D03*
%TD*%
D25*
%TO.C,Y1*%
X149100000Y-88750000D03*
X149100000Y-80250000D03*
%TD*%
D26*
%TO.C,R9*%
X176600000Y-121900000D03*
X176600000Y-119900000D03*
%TD*%
D16*
%TO.C,REF\u002A\u002A*%
X159500000Y-98500000D03*
%TD*%
D15*
%TO.C,R12*%
X131500000Y-115200000D03*
X131500000Y-117200000D03*
%TD*%
D10*
%TO.C,REF\u002A\u002A*%
X87000000Y-68000000D03*
%TD*%
%TO.C,REF\u002A\u002A*%
X87000000Y-130000000D03*
%TD*%
D27*
%TO.C,U1*%
X140650000Y-87915000D03*
X140650000Y-86645000D03*
X140650000Y-85375000D03*
X140650000Y-84105000D03*
X140650000Y-82835000D03*
X140650000Y-81565000D03*
X140650000Y-80295000D03*
X140650000Y-79025000D03*
X140650000Y-77755000D03*
X140650000Y-76485000D03*
X131350000Y-76485000D03*
X131350000Y-77755000D03*
X131350000Y-79025000D03*
X131350000Y-80295000D03*
X131350000Y-81565000D03*
X131350000Y-82835000D03*
X131350000Y-84105000D03*
X131350000Y-85375000D03*
X131350000Y-86645000D03*
X131350000Y-87915000D03*
%TD*%
D14*
%TO.C,C17*%
X138437500Y-108000000D03*
X136362500Y-108000000D03*
%TD*%
D28*
%TO.C,J4*%
X108240000Y-92620000D03*
D24*
X105700000Y-92620000D03*
X108240000Y-90080000D03*
X105700000Y-90080000D03*
X108240000Y-87540000D03*
X105700000Y-87540000D03*
X108240000Y-85000000D03*
X105700000Y-85000000D03*
X108240000Y-82460000D03*
X105700000Y-82460000D03*
X108240000Y-79920000D03*
X105700000Y-79920000D03*
X108240000Y-77380000D03*
X105700000Y-77380000D03*
X108240000Y-74840000D03*
X105700000Y-74840000D03*
%TD*%
D15*
%TO.C,R13*%
X127200000Y-117200000D03*
X127200000Y-119200000D03*
%TD*%
D12*
%TO.C,R8*%
X132300000Y-109200000D03*
X134300000Y-109200000D03*
%TD*%
%TO.C,R15*%
X132300000Y-107000000D03*
X134300000Y-107000000D03*
%TD*%
%TO.C,R3*%
X98600000Y-91900000D03*
X100600000Y-91900000D03*
%TD*%
D16*
%TO.C,REF\u002A\u002A*%
X159500000Y-71500000D03*
%TD*%
D14*
%TO.C,C2*%
X145537500Y-83000000D03*
X143462500Y-83000000D03*
%TD*%
D29*
%TO.C,C8*%
X84400000Y-87962500D03*
X84400000Y-90037500D03*
%TD*%
D30*
%TO.C,U4*%
X143500000Y-105320000D03*
D31*
X149800000Y-107600000D03*
D30*
X143500000Y-109880000D03*
%TD*%
D26*
%TO.C,R1*%
X127700000Y-98900000D03*
X127700000Y-96900000D03*
%TD*%
D32*
%TO.C,C14*%
X174200000Y-121937500D03*
X174200000Y-119862500D03*
%TD*%
%TO.C,C4*%
X126600000Y-88037500D03*
X126600000Y-85962500D03*
%TD*%
D15*
%TO.C,R7*%
X98100000Y-73100000D03*
X98100000Y-75100000D03*
%TD*%
D33*
%TO.C,D1*%
X166225000Y-111500000D03*
D34*
X168765000Y-111500000D03*
%TD*%
D12*
%TO.C,R2*%
X98600000Y-89900000D03*
X100600000Y-89900000D03*
%TD*%
D35*
%TO.C,U2*%
X86800000Y-86275000D03*
X86800000Y-86925000D03*
X86800000Y-87575000D03*
X86800000Y-88225000D03*
X86800000Y-88875000D03*
X86800000Y-89525000D03*
X86800000Y-90175000D03*
X86800000Y-90825000D03*
X86800000Y-91475000D03*
X86800000Y-92125000D03*
X86800000Y-92775000D03*
X86800000Y-93425000D03*
X86800000Y-94075000D03*
X86800000Y-94725000D03*
X94000000Y-94725000D03*
X94000000Y-94075000D03*
X94000000Y-93425000D03*
X94000000Y-92775000D03*
X94000000Y-92125000D03*
X94000000Y-91475000D03*
X94000000Y-90825000D03*
X94000000Y-90175000D03*
X94000000Y-89525000D03*
X94000000Y-88875000D03*
X94000000Y-88225000D03*
X94000000Y-87575000D03*
X94000000Y-86925000D03*
X94000000Y-86275000D03*
%TD*%
D12*
%TO.C,R10*%
X131000000Y-119400000D03*
X133000000Y-119400000D03*
%TD*%
D14*
%TO.C,C6*%
X98637500Y-95400000D03*
X96562500Y-95400000D03*
%TD*%
D16*
%TO.C,REF\u002A\u002A*%
X106500000Y-71500000D03*
%TD*%
D29*
%TO.C,C9*%
X96700000Y-91462500D03*
X96700000Y-93537500D03*
%TD*%
D12*
%TO.C,R4*%
X126700000Y-82700000D03*
X128700000Y-82700000D03*
%TD*%
D14*
%TO.C,C16*%
X138437500Y-110200000D03*
X136362500Y-110200000D03*
%TD*%
D23*
%TO.C,J3*%
X160700000Y-93500000D03*
%TD*%
D36*
%TO.C,R11*%
X168800000Y-115900000D03*
X166800000Y-115900000D03*
%TD*%
D37*
%TO.C,C15*%
X149837500Y-102500000D03*
X146962500Y-102500000D03*
%TD*%
D32*
%TO.C,C5*%
X128600000Y-88037500D03*
X128600000Y-85962500D03*
%TD*%
D14*
%TO.C,C1*%
X142937500Y-90600000D03*
X140862500Y-90600000D03*
%TD*%
D23*
%TO.C,J2*%
X160700000Y-76500000D03*
%TD*%
D29*
%TO.C,C13*%
X155500000Y-125225000D03*
X155500000Y-127300000D03*
%TD*%
D23*
%TO.C,JP1*%
X115600000Y-84400000D03*
D38*
X118140000Y-84400000D03*
X120680000Y-84400000D03*
%TD*%
D39*
%TO.C,J6*%
X126000002Y-107399998D03*
D40*
X124730002Y-107399998D03*
X126000002Y-108669998D03*
X124730002Y-108669998D03*
X126000002Y-109939998D03*
X124730002Y-109939998D03*
%TD*%
D41*
%TO.C,J5*%
X130500000Y-96600000D03*
D24*
X130500000Y-99140000D03*
X133040000Y-96600000D03*
X133040000Y-99140000D03*
X135580000Y-96600000D03*
X135580000Y-99140000D03*
X138120000Y-96600000D03*
X138120000Y-99140000D03*
X140660000Y-96600000D03*
X140660000Y-99140000D03*
%TD*%
M02*
