%TF.GenerationSoftware,KiCad,Pcbnew,(6.0.11)*%
%TF.CreationDate,2024-04-25T22:51:55+03:00*%
%TF.ProjectId,avr-co2-detector,6176722d-636f-4322-9d64-65746563746f,rev.2*%
%TF.SameCoordinates,Original*%
%TF.FileFunction,Paste,Bot*%
%TF.FilePolarity,Positive*%
%FSLAX46Y46*%
G04 Gerber Fmt 4.6, Leading zero omitted, Abs format (unit mm)*
G04 Created by KiCad (PCBNEW (6.0.11)) date 2024-04-25 22:51:55*
%MOMM*%
%LPD*%
G01*
G04 APERTURE LIST*
G04 Aperture macros list*
%AMRoundRect*
0 Rectangle with rounded corners*
0 $1 Rounding radius*
0 $2 $3 $4 $5 $6 $7 $8 $9 X,Y pos of 4 corners*
0 Add a 4 corners polygon primitive as box body*
4,1,4,$2,$3,$4,$5,$6,$7,$8,$9,$2,$3,0*
0 Add four circle primitives for the rounded corners*
1,1,$1+$1,$2,$3*
1,1,$1+$1,$4,$5*
1,1,$1+$1,$6,$7*
1,1,$1+$1,$8,$9*
0 Add four rect primitives between the rounded corners*
20,1,$1+$1,$2,$3,$4,$5,0*
20,1,$1+$1,$4,$5,$6,$7,0*
20,1,$1+$1,$6,$7,$8,$9,0*
20,1,$1+$1,$8,$9,$2,$3,0*%
G04 Aperture macros list end*
%ADD10RoundRect,0.250000X0.475000X-0.337500X0.475000X0.337500X-0.475000X0.337500X-0.475000X-0.337500X0*%
%ADD11RoundRect,0.250000X-0.475000X0.337500X-0.475000X-0.337500X0.475000X-0.337500X0.475000X0.337500X0*%
%ADD12RoundRect,0.150000X0.512500X0.150000X-0.512500X0.150000X-0.512500X-0.150000X0.512500X-0.150000X0*%
%ADD13RoundRect,0.250000X-0.337500X-0.475000X0.337500X-0.475000X0.337500X0.475000X-0.337500X0.475000X0*%
%ADD14R,1.550000X1.300000*%
%ADD15RoundRect,0.250000X0.450000X-0.350000X0.450000X0.350000X-0.450000X0.350000X-0.450000X-0.350000X0*%
G04 APERTURE END LIST*
D10*
%TO.C,C18*%
X156685714Y-81037500D03*
X156685714Y-78962500D03*
%TD*%
D11*
%TO.C,C10*%
X96200000Y-115262500D03*
X96200000Y-117337500D03*
%TD*%
D12*
%TO.C,U7*%
X110500000Y-118250000D03*
X110500000Y-119200000D03*
X110500000Y-120150000D03*
X108225000Y-120150000D03*
X108225000Y-119200000D03*
X108225000Y-118250000D03*
%TD*%
%TO.C,U9*%
X170637500Y-94950000D03*
X170637500Y-95900000D03*
X170637500Y-96850000D03*
X168362500Y-96850000D03*
X168362500Y-95900000D03*
X168362500Y-94950000D03*
%TD*%
D13*
%TO.C,C25*%
X168362500Y-92200000D03*
X170437500Y-92200000D03*
%TD*%
D14*
%TO.C,SW1*%
X115425000Y-99750000D03*
X123375000Y-99750000D03*
X123375000Y-95250000D03*
X115425000Y-95250000D03*
%TD*%
D13*
%TO.C,C23*%
X108425000Y-115600000D03*
X110500000Y-115600000D03*
%TD*%
D10*
%TO.C,C22*%
X173700000Y-96937500D03*
X173700000Y-94862500D03*
%TD*%
D12*
%TO.C,U6*%
X153137500Y-79850000D03*
X153137500Y-80800000D03*
X153137500Y-81750000D03*
X150862500Y-81750000D03*
X150862500Y-80800000D03*
X150862500Y-79850000D03*
%TD*%
D11*
%TO.C,C7*%
X110700000Y-92562500D03*
X110700000Y-94637500D03*
%TD*%
%TO.C,C24*%
X164985714Y-84862500D03*
X164985714Y-86937500D03*
%TD*%
D15*
%TO.C,R6*%
X110700000Y-90700000D03*
X110700000Y-88700000D03*
%TD*%
D10*
%TO.C,C21*%
X173785714Y-87037500D03*
X173785714Y-84962500D03*
%TD*%
D14*
%TO.C,SW2*%
X155325000Y-103650000D03*
X163275000Y-103650000D03*
X163275000Y-108150000D03*
X155325000Y-108150000D03*
%TD*%
D12*
%TO.C,U8*%
X170637500Y-85150000D03*
X170637500Y-86100000D03*
X170637500Y-87050000D03*
X168362500Y-87050000D03*
X168362500Y-86100000D03*
X168362500Y-85150000D03*
%TD*%
D11*
%TO.C,C11*%
X93800000Y-115262500D03*
X93800000Y-117337500D03*
%TD*%
D15*
%TO.C,R5*%
X110700000Y-86700000D03*
X110700000Y-84700000D03*
%TD*%
D10*
%TO.C,C20*%
X113562500Y-120237500D03*
X113562500Y-118162500D03*
%TD*%
D11*
%TO.C,C19*%
X146985714Y-79062500D03*
X146985714Y-81137500D03*
%TD*%
M02*
