%TF.GenerationSoftware,KiCad,Pcbnew,(6.0.11)*%
%TF.CreationDate,2024-04-25T23:10:28+03:00*%
%TF.ProjectId,avr-co2-detector,6176722d-636f-4322-9d64-65746563746f,rev.2*%
%TF.SameCoordinates,Original*%
%TF.FileFunction,Paste,Top*%
%TF.FilePolarity,Positive*%
%FSLAX46Y46*%
G04 Gerber Fmt 4.6, Leading zero omitted, Abs format (unit mm)*
G04 Created by KiCad (PCBNEW (6.0.11)) date 2024-04-25 23:10:28*
%MOMM*%
%LPD*%
G01*
G04 APERTURE LIST*
G04 Aperture macros list*
%AMRoundRect*
0 Rectangle with rounded corners*
0 $1 Rounding radius*
0 $2 $3 $4 $5 $6 $7 $8 $9 X,Y pos of 4 corners*
0 Add a 4 corners polygon primitive as box body*
4,1,4,$2,$3,$4,$5,$6,$7,$8,$9,$2,$3,0*
0 Add four circle primitives for the rounded corners*
1,1,$1+$1,$2,$3*
1,1,$1+$1,$4,$5*
1,1,$1+$1,$6,$7*
1,1,$1+$1,$8,$9*
0 Add four rect primitives between the rounded corners*
20,1,$1+$1,$2,$3,$4,$5,0*
20,1,$1+$1,$4,$5,$6,$7,0*
20,1,$1+$1,$6,$7,$8,$9,0*
20,1,$1+$1,$8,$9,$2,$3,0*%
G04 Aperture macros list end*
%ADD10R,2.500000X1.000000*%
%ADD11R,1.550000X1.300000*%
%ADD12RoundRect,0.250000X0.337500X0.475000X-0.337500X0.475000X-0.337500X-0.475000X0.337500X-0.475000X0*%
%ADD13RoundRect,0.250000X-0.450000X0.350000X-0.450000X-0.350000X0.450000X-0.350000X0.450000X0.350000X0*%
%ADD14RoundRect,0.250000X0.425000X-0.537500X0.425000X0.537500X-0.425000X0.537500X-0.425000X-0.537500X0*%
%ADD15R,1.450000X0.600000*%
%ADD16R,1.450000X0.300000*%
%ADD17R,2.000000X4.500000*%
%ADD18RoundRect,0.250000X0.450000X-0.350000X0.450000X0.350000X-0.450000X0.350000X-0.450000X-0.350000X0*%
%ADD19RoundRect,0.150000X0.875000X0.150000X-0.875000X0.150000X-0.875000X-0.150000X0.875000X-0.150000X0*%
%ADD20RoundRect,0.250000X-0.350000X-0.450000X0.350000X-0.450000X0.350000X0.450000X-0.350000X0.450000X0*%
%ADD21RoundRect,0.250000X-0.475000X0.337500X-0.475000X-0.337500X0.475000X-0.337500X0.475000X0.337500X0*%
%ADD22R,3.050000X2.750000*%
%ADD23R,2.200000X1.200000*%
%ADD24RoundRect,0.250000X0.475000X-0.337500X0.475000X0.337500X-0.475000X0.337500X-0.475000X-0.337500X0*%
%ADD25R,1.750000X0.450000*%
%ADD26RoundRect,0.250000X0.350000X0.450000X-0.350000X0.450000X-0.350000X-0.450000X0.350000X-0.450000X0*%
%ADD27RoundRect,0.250000X0.537500X0.425000X-0.537500X0.425000X-0.537500X-0.425000X0.537500X-0.425000X0*%
G04 APERTURE END LIST*
D10*
%TO.C,U5*%
X151800000Y-127200000D03*
X151800000Y-125200000D03*
X151800000Y-123200000D03*
X151800000Y-121200000D03*
X151800000Y-119200000D03*
X151800000Y-117200000D03*
X151800000Y-115200000D03*
X151800000Y-113200000D03*
X136600000Y-113200000D03*
X136600000Y-115200000D03*
X136600000Y-117200000D03*
X136600000Y-119200000D03*
X136600000Y-121200000D03*
X136600000Y-123200000D03*
X136600000Y-125200000D03*
X136600000Y-127200000D03*
%TD*%
D11*
%TO.C,SW3*%
X171475000Y-123250000D03*
X163525000Y-123250000D03*
X163525000Y-118750000D03*
X171475000Y-118750000D03*
%TD*%
D12*
%TO.C,C3*%
X145537500Y-85000000D03*
X143462500Y-85000000D03*
%TD*%
D13*
%TO.C,R14*%
X131500000Y-111200000D03*
X131500000Y-113200000D03*
%TD*%
D14*
%TO.C,C12*%
X140600000Y-109237500D03*
X140600000Y-106362500D03*
%TD*%
D15*
%TO.C,J1*%
X90045000Y-74750000D03*
X90045000Y-75550000D03*
D16*
X90045000Y-76750000D03*
X90045000Y-77750000D03*
X90045000Y-78250000D03*
X90045000Y-79250000D03*
D15*
X90045000Y-80450000D03*
X90045000Y-81250000D03*
X90045000Y-81250000D03*
X90045000Y-80450000D03*
D16*
X90045000Y-79750000D03*
X90045000Y-78750000D03*
X90045000Y-77250000D03*
X90045000Y-76250000D03*
D15*
X90045000Y-75550000D03*
X90045000Y-74750000D03*
%TD*%
D17*
%TO.C,Y1*%
X149100000Y-88750000D03*
X149100000Y-80250000D03*
%TD*%
D18*
%TO.C,R9*%
X176600000Y-121900000D03*
X176600000Y-119900000D03*
%TD*%
D13*
%TO.C,R12*%
X131500000Y-115200000D03*
X131500000Y-117200000D03*
%TD*%
D19*
%TO.C,U1*%
X140650000Y-87915000D03*
X140650000Y-86645000D03*
X140650000Y-85375000D03*
X140650000Y-84105000D03*
X140650000Y-82835000D03*
X140650000Y-81565000D03*
X140650000Y-80295000D03*
X140650000Y-79025000D03*
X140650000Y-77755000D03*
X140650000Y-76485000D03*
X131350000Y-76485000D03*
X131350000Y-77755000D03*
X131350000Y-79025000D03*
X131350000Y-80295000D03*
X131350000Y-81565000D03*
X131350000Y-82835000D03*
X131350000Y-84105000D03*
X131350000Y-85375000D03*
X131350000Y-86645000D03*
X131350000Y-87915000D03*
%TD*%
D20*
%TO.C,R15*%
X130900000Y-124800000D03*
X132900000Y-124800000D03*
%TD*%
D12*
%TO.C,C17*%
X138437500Y-108000000D03*
X136362500Y-108000000D03*
%TD*%
D13*
%TO.C,R13*%
X127200000Y-117200000D03*
X127200000Y-119200000D03*
%TD*%
D20*
%TO.C,R8*%
X132300000Y-109200000D03*
X134300000Y-109200000D03*
%TD*%
%TO.C,R16*%
X132300000Y-107000000D03*
X134300000Y-107000000D03*
%TD*%
%TO.C,R3*%
X98600000Y-91900000D03*
X100600000Y-91900000D03*
%TD*%
D12*
%TO.C,C2*%
X145537500Y-83000000D03*
X143462500Y-83000000D03*
%TD*%
D21*
%TO.C,C8*%
X84400000Y-87962500D03*
X84400000Y-90037500D03*
%TD*%
D22*
%TO.C,U4*%
X151475000Y-109125000D03*
X151475000Y-106075000D03*
X148125000Y-106075000D03*
X148125000Y-109125000D03*
D23*
X143500000Y-105320000D03*
X143500000Y-109880000D03*
%TD*%
D18*
%TO.C,R1*%
X127700000Y-98900000D03*
X127700000Y-96900000D03*
%TD*%
D24*
%TO.C,C14*%
X174200000Y-121937500D03*
X174200000Y-119862500D03*
%TD*%
%TO.C,C4*%
X126600000Y-88037500D03*
X126600000Y-85962500D03*
%TD*%
D13*
%TO.C,R7*%
X98100000Y-73100000D03*
X98100000Y-75100000D03*
%TD*%
D20*
%TO.C,R2*%
X98600000Y-89900000D03*
X100600000Y-89900000D03*
%TD*%
D25*
%TO.C,U2*%
X86800000Y-86275000D03*
X86800000Y-86925000D03*
X86800000Y-87575000D03*
X86800000Y-88225000D03*
X86800000Y-88875000D03*
X86800000Y-89525000D03*
X86800000Y-90175000D03*
X86800000Y-90825000D03*
X86800000Y-91475000D03*
X86800000Y-92125000D03*
X86800000Y-92775000D03*
X86800000Y-93425000D03*
X86800000Y-94075000D03*
X86800000Y-94725000D03*
X94000000Y-94725000D03*
X94000000Y-94075000D03*
X94000000Y-93425000D03*
X94000000Y-92775000D03*
X94000000Y-92125000D03*
X94000000Y-91475000D03*
X94000000Y-90825000D03*
X94000000Y-90175000D03*
X94000000Y-89525000D03*
X94000000Y-88875000D03*
X94000000Y-88225000D03*
X94000000Y-87575000D03*
X94000000Y-86925000D03*
X94000000Y-86275000D03*
%TD*%
D20*
%TO.C,R10*%
X131000000Y-119400000D03*
X133000000Y-119400000D03*
%TD*%
D12*
%TO.C,C6*%
X98637500Y-95400000D03*
X96562500Y-95400000D03*
%TD*%
D21*
%TO.C,C9*%
X96700000Y-91462500D03*
X96700000Y-93537500D03*
%TD*%
D20*
%TO.C,R4*%
X126700000Y-82700000D03*
X128700000Y-82700000D03*
%TD*%
D12*
%TO.C,C16*%
X138437500Y-110200000D03*
X136362500Y-110200000D03*
%TD*%
D26*
%TO.C,R11*%
X168800000Y-115900000D03*
X166800000Y-115900000D03*
%TD*%
D27*
%TO.C,C15*%
X149837500Y-102500000D03*
X146962500Y-102500000D03*
%TD*%
D24*
%TO.C,C5*%
X128600000Y-88037500D03*
X128600000Y-85962500D03*
%TD*%
D12*
%TO.C,C1*%
X142937500Y-90600000D03*
X140862500Y-90600000D03*
%TD*%
D21*
%TO.C,C13*%
X155500000Y-125225000D03*
X155500000Y-127300000D03*
%TD*%
M02*
