M48
; DRILL file {KiCad (6.0.11)} date Thu Apr 25 23:10:31 2024
; FORMAT={-:-/ absolute / metric / decimal}
; #@! TF.CreationDate,2024-04-25T23:10:31+03:00
; #@! TF.GenerationSoftware,Kicad,Pcbnew,(6.0.11)
; #@! TF.FileFunction,Plated,1,2,PTH
FMAT,2
METRIC
; #@! TA.AperFunction,Plated,PTH,ViaDrill
T1C0.400
; #@! TA.AperFunction,Plated,PTH,ComponentDrill
T2C0.600
; #@! TA.AperFunction,Plated,PTH,ComponentDrill
T3C0.650
; #@! TA.AperFunction,Plated,PTH,ComponentDrill
T4C0.900
; #@! TA.AperFunction,Plated,PTH,ComponentDrill
T5C1.000
%
G90
G05
T1
X84.4Y-71.3
X84.4Y-91.7
X85.0Y-86.2
X86.2Y-78.2
X87.0Y-74.6
X88.219Y-88.819
X88.239Y-86.378
X88.8Y-93.7
X89.4Y-111.8
X90.3Y-87.7
X90.5Y-90.2
X90.6Y-84.1
X91.4Y-71.2
X92.4Y-105.6
X92.4Y-112.9
X92.8Y-74.4
X92.8Y-76.7
X94.7Y-95.9
X94.7Y-107.3
X95.8Y-89.2
X96.0Y-84.1
X96.3Y-73.9
X96.8Y-101.2
X97.1Y-80.0
X99.0Y-102.9
X99.3Y-78.6
X99.3Y-85.5
X99.9Y-71.8
X100.8Y-74.4
X100.8Y-97.3
X102.6Y-71.5
X102.6Y-85.6
X102.8Y-98.9
X103.1Y-90.1
X103.2Y-92.7
X104.5Y-65.2
X107.0Y-117.0
X108.2Y-104.7
X108.3Y-111.8
X109.498Y-120.932
X110.7Y-121.025
X110.8Y-69.9
X110.8Y-104.8
X110.9Y-111.9
X111.3Y-76.5
X111.6Y-117.0
X111.7Y-97.6
X112.0Y-124.1
X112.4Y-90.8
X112.5Y-88.6
X114.2Y-88.34
X114.4Y-123.2
X114.5Y-97.3
X115.0Y-127.6
X115.3Y-90.9
X115.5Y-71.1
X116.8Y-121.4
X116.9Y-76.4
X117.3Y-93.9
X117.5Y-126.3
X118.0Y-65.2
X118.8Y-88.6
X119.2Y-96.7
X119.3Y-75.3
X120.3Y-128.6
X120.9Y-91.2
X121.4Y-112.0
X121.7Y-106.0
X122.2Y-68.2
X122.2Y-120.0
X122.4Y-124.9
X123.1Y-102.5
X124.3Y-93.7
X124.5Y-90.0
X124.6Y-97.5
X125.4Y-72.3
X125.6Y-126.6
X127.0Y-76.5
X127.7Y-71.7
X127.7Y-102.0
X128.6Y-84.4
X129.0Y-80.8
X131.0Y-65.1
X131.0Y-69.0
X132.0Y-102.5
X133.2Y-90.7
X133.2Y-121.6
X133.3Y-78.0
X133.9Y-68.5
X134.0Y-79.1
X134.0Y-123.8
X134.1Y-111.8
X134.4Y-101.2
X134.5Y-105.4
X134.5Y-114.1
X136.5Y-106.4
X136.6Y-72.8
X138.2Y-111.8
X138.4Y-76.5
X138.9Y-114.9
X139.0Y-120.9
X139.7Y-126.4
X140.7Y-69.0
X140.9Y-92.3
X141.7Y-104.6
X141.8Y-112.1
X141.9Y-107.9
X142.2Y-93.0
X142.3Y-89.0
X142.5Y-65.3
X142.9Y-77.2
X142.971Y-87.806
X143.0Y-114.5
X143.5Y-72.9
X143.6Y-81.0
X143.6Y-107.9
X144.0Y-69.4
X144.0Y-87.6
X144.4Y-103.4
X145.5Y-107.8
X145.9Y-76.1
X146.9Y-89.9
X147.0Y-82.4
X147.0Y-86.5
X147.0Y-94.6
X148.3Y-98.0
X148.4Y-117.7
X148.5Y-123.6
X150.1Y-69.5
X150.3Y-73.1
X150.5Y-96.5
X151.0Y-84.2
X151.8Y-103.5
X152.2Y-89.3
X152.5Y-83.7
X152.7Y-76.1
X153.0Y-68.8
X153.2Y-94.3
X154.0Y-109.7
X154.3Y-123.3
X154.5Y-116.2
X155.1Y-75.7
X155.2Y-82.8
X156.7Y-86.7
X157.1Y-114.2
X157.5Y-126.1
X158.1Y-89.4
X159.0Y-122.4
X159.3Y-80.7
X159.3Y-86.6
X159.8Y-115.7
X161.2Y-67.0
X161.2Y-110.3
X162.0Y-78.8
X163.0Y-84.2
X163.7Y-89.8
X163.7Y-112.0
X163.8Y-94.0
X164.5Y-66.6
X165.2Y-116.0
X165.7Y-82.6
X166.2Y-71.9
X166.7Y-88.3
X167.0Y-104.9
X167.2Y-100.4
X167.4Y-93.6
X168.2Y-77.3
X168.6Y-70.8
X168.6Y-98.1
X168.8Y-126.3
X168.9Y-106.5
X169.0Y-117.6
X169.1Y-119.9
X169.4Y-82.0
X169.5Y-101.0
X169.6Y-89.6
X170.0Y-130.0
X170.3Y-93.8
X170.7Y-98.0
X170.8Y-90.3
X170.9Y-77.3
X170.9Y-83.6
X170.9Y-88.7
X172.0Y-101.0
X172.1Y-98.126
X172.4Y-88.1
X173.8Y-93.0
X174.4Y-124.0
X175.6Y-103.1
X176.5Y-85.8
X176.5Y-98.9
X177.2Y-108.4
X177.2Y-117.7
X177.5Y-89.5
X178.0Y-92.0
X178.525Y-114.3
X179.4Y-94.8
X179.5Y-100.9
X179.5Y-124.5
X179.6Y-118.4
X179.7Y-105.6
X179.7Y-110.6
X180.4Y-90.6
X181.8Y-94.8
X181.8Y-110.6
X181.9Y-100.9
X182.0Y-105.5
T3
X124.73Y-107.4
X124.73Y-108.67
X124.73Y-109.94
X126.0Y-107.4
X126.0Y-108.67
X126.0Y-109.94
T4
X166.225Y-111.5
X168.765Y-111.5
T5
X90.697Y-114.92
X90.697Y-117.46
X90.697Y-120.0
X90.697Y-122.54
X105.7Y-74.84
X105.7Y-77.38
X105.7Y-79.92
X105.7Y-82.46
X105.7Y-85.0
X105.7Y-87.54
X105.7Y-90.08
X105.7Y-92.62
X108.24Y-74.84
X108.24Y-77.38
X108.24Y-79.92
X108.24Y-82.46
X108.24Y-85.0
X108.24Y-87.54
X108.24Y-90.08
X108.24Y-92.62
X114.06Y-68.4
X115.6Y-84.4
X116.6Y-68.4
X118.14Y-84.4
X119.14Y-68.4
X120.397Y-114.92
X120.397Y-117.46
X120.397Y-120.0
X120.397Y-122.54
X120.397Y-125.08
X120.68Y-84.4
X130.5Y-96.6
X130.5Y-99.14
X133.04Y-96.6
X133.04Y-99.14
X135.58Y-96.6
X135.58Y-99.14
X138.12Y-96.6
X138.12Y-99.14
X140.66Y-96.6
X140.66Y-99.14
X160.7Y-76.5
X160.7Y-93.5
X174.8Y-77.3
X177.34Y-77.3
T2
G00X85.25Y-73.68
M15
G01X84.65Y-73.68
M16
G05
G00X85.25Y-82.32
M15
G01X84.65Y-82.32
M16
G05
G00X89.68Y-73.68
M15
G01X88.58Y-73.68
M16
G05
G00X89.68Y-82.32
M15
G01X88.58Y-82.32
M16
G05
T0
M30
